<?xml version="1.0" encoding="UTF-8"?>
<svg width="100pt" height="100pt" version="1.1" viewBox="0 0 100 100" xmlns="http://www.w3.org/2000/svg">
 <path fill="#4E0110" d="m29.359 68.828c5.0625 0 9.8438-3.0938 11.719-8.1094l7.625-20.344c0.64062-1.6875-0.23438-3.5781-1.9219-4.2188l-17.281-6.4844c-1.6875-0.64062-3.5781 0.21875-4.2031 1.9219l-7.625 20.344c-2.2344 5.9531 0.40625 12.562 5.8906 15.438l-6.1094 16.297c-2.1719-0.5625-4.5-0.6875-6.8906-0.26562l-5.5781 0.96875c-0.98438 0.17188-1.75 1.0469-1.8438 2.125-0.09375 0.98438 0.42188 1.8594 1.2969 2.1875l22.469 8.4219c0.21875 0.078125 0.45312 0.125 0.6875 0.125 0.65625 0 1.2969-0.32812 1.7188-0.92188 0.625-0.875 0.625-2.0312 0-2.8125l-3.5625-4.4062c-1.5312-1.8906-3.3594-3.3281-5.375-4.3281l6.1094-16.297c0.95312 0.23438 1.9219 0.34375 2.875 0.34375zm-6.0469 22.25 1.5781 1.9531-16.281-6.1094 2.4844-0.4375c4.7969-0.82812 9.1562 0.78125 12.219 4.5781zm4.9062-58.391s0.078125-0.09375 0.14062-0.09375h0.046875l17.281 6.4844s0.10938 0.10938 0.078125 0.1875l-4.5938 12.234c-3.0156 1.1094-6.1875 1.7656-9.4531 1.9219-3.3438 0.15625-6.625-0.35938-9.7812-1.5469l-0.8125-0.3125 7.0781-18.891zm-2.1562 32.406c-4.3281-1.625-6.75-6.1406-5.8906-10.547l0.6875 0.25c3.1406 1.1719 6.4062 1.7656 9.7344 1.7656 0.42188 0 0.85938 0 1.2812-0.03125 2.7031-0.125 5.3438-0.57812 7.9062-1.2969l-1.6406 4.3594c-1.8125 4.8438-7.2188 7.2969-12.062 5.4844h-0.015625z"/>
 <path fill="#4E0110" d="m81.219 83.906-6.0156-16.328c2.4531-1.2656 4.4219-3.2969 5.5938-5.8438 1.3906-3.0312 1.5312-6.4219 0.375-9.5625l-7.5156-20.391c-0.625-1.6875-2.5-2.5625-4.2031-1.9375l-17.312 6.3906c-1.6875 0.625-2.5625 2.5-1.9375 4.2031l7.5156 20.391c1.8594 5.0469 6.6562 8.1719 11.734 8.1719 0.9375 0 1.875-0.10938 2.8125-0.32812l6.0156 16.328c-2.0156 1-3.8594 2.4219-5.3906 4.2969l-3.5781 4.375c-0.64062 0.78125-0.64062 1.9375 0 2.8125 0.42188 0.59375 1.0625 0.9375 1.7188 0.9375 0.21875 0 0.45312-0.046875 0.67188-0.125l22.516-8.2969c0.85938-0.3125 1.3906-1.1875 1.2969-2.1719-0.09375-1.0781-0.84375-1.9531-1.8281-2.125l-5.5625-1c-2.3906-0.4375-4.7188-0.32812-6.8906 0.23438zm-24.328-34.344-3.7656-10.219s0-0.15625 0.078125-0.1875l17.312-6.3906h0.046875c0.0625 0 0.10938 0.03125 0.14062 0.09375l6.9844 18.922-2.5938 0.95312c-1.5469 0.57812-3.2812 0.32812-4.625-0.64062-3.9375-2.875-8.9062-3.7656-13.578-2.5312zm3.75 10.172-2.6719-7.2344c3.6719-0.89062 7.5625-0.14062 10.656 2.125 1.4062 1.0156 3.0781 1.5469 4.7656 1.5469 0.9375 0 1.875-0.15625 2.7812-0.5l2.4688-0.90625c0.35938 1.9062 0.14062 3.8594-0.6875 5.6562-1.0469 2.2812-2.9219 4-5.2656 4.875-4.8594 1.7969-10.25-0.70312-12.047-5.5469zm13.062 33.484 1.5938-1.9531c2.5469-3.1094 5.9375-4.75 9.7344-4.75 0.8125 0 1.6562 0.078125 2.5156 0.23438l2.4844 0.45312z"/>
 <path fill="#D2A335" d="m51.484 32.5c0.89062-2.6562 3-4.7656 5.6406-5.6406 0.64062-0.21875 1.0625-0.8125 1.0625-1.4844s-0.4375-1.2656-1.0625-1.4844c-2.6562-0.875-4.75-3-5.6406-5.6406-0.21875-0.64062-0.8125-1.0625-1.4844-1.0625s-1.2656 0.4375-1.4844 1.0625c-0.89062 2.6562-3 4.7656-5.6406 5.6406-0.64062 0.21875-1.0625 0.8125-1.0625 1.4844s0.4375 1.2656 1.0625 1.4844c2.6562 0.875 4.75 2.9844 5.6406 5.6406 0.21875 0.64062 0.8125 1.0625 1.4844 1.0625s1.2656-0.4375 1.4844-1.0625zm-4.6406-7.125c1.2344-0.84375 2.3125-1.9219 3.1562-3.1562 0.84375 1.2344 1.9219 2.3125 3.1562 3.1562-1.2344 0.84375-2.3125 1.9219-3.1562 3.1562-0.84375-1.2344-1.9219-2.3125-3.1562-3.1562z"/>
 <path fill="#D2A335" d="m48.438 4.6875v6.25c0 0.85938 0.70312 1.5625 1.5625 1.5625s1.5625-0.70312 1.5625-1.5625v-6.25c0-0.85938-0.70312-1.5625-1.5625-1.5625s-1.5625 0.70312-1.5625 1.5625z"/>
 <path fill="#D2A335" d="m26.562 9c-0.60938 0.60938-0.60938 1.5938 0 2.2031l4.4219 4.4219c0.60938 0.60938 1.5938 0.60938 2.2031 0s0.60938-1.5938 0-2.2031l-4.4219-4.4219c-0.60938-0.60938-1.5938-0.60938-2.2031 0z"/>
 <path fill="#D2A335" d="m66.812 13.422c-0.60938 0.60938-0.60938 1.5938 0 2.2031s1.5938 0.60938 2.2031 0l4.4219-4.4219c0.60938-0.60938 0.60938-1.5938 0-2.2031s-1.5938-0.60938-2.2031 0z"/>
</svg>